<?xml version="1.0" encoding="utf-8"?>
<!-- Generator: Adobe Illustrator 16.0.0, SVG Export Plug-In . SVG Version: 6.00 Build 0)  -->
<!DOCTYPE svg PUBLIC "-//W3C//DTD SVG 1.1//EN" "http://www.w3.org/Graphics/SVG/1.1/DTD/svg11.dtd">
<svg version="1.1" id="Layer_1" xmlns="http://www.w3.org/2000/svg" xmlns:xlink="http://www.w3.org/1999/xlink" x="0px" y="0px"
	 width="180px" height="180px" viewBox="0 0 180 180" enable-background="new 0 0 180 180" xml:space="preserve">
<circle fill="none" stroke="#F05A28" stroke-width="7" stroke-miterlimit="10" cx="90.314" cy="90.526" r="81.873"/>
<path fill="#F05A28" d="M107.134,125.034l-9.29-67.058c1.129-1.051,1.997-2.369,2.378-3.84l1.244-8.151
	c0.435-1.795,0.09-3.587-0.947-4.93c-1.061-1.371-2.758-2.159-4.652-2.159H84.761c-1.896,0-3.59,0.787-4.652,2.159
	c-1.039,1.343-1.382,3.135-0.949,4.93l1.203,7.944l0.042,0.207c0.382,1.47,1.251,2.789,2.378,3.84l-9.289,67.058
	c-0.087,0.639,0.127,1.279,0.581,1.733l14.79,14.788c0.401,0.4,0.926,0.599,1.45,0.599c0.523,0,1.05-0.198,1.45-0.599l14.789-14.788
	C107.008,126.311,107.221,125.671,107.134,125.034 M83.351,43.564c0.282-0.366,0.783-0.567,1.409-0.567h11.106
	c0.626,0,1.126,0.201,1.409,0.567c0.282,0.367,0.353,0.899,0.195,1.504l-1.241,8.13c-0.472,1.615-2.307,3.012-3.982,3.012H88.38
	c-1.677,0-3.513-1.397-3.983-3.012l-1.198-7.922l-0.042-0.208C83,44.463,83.069,43.928,83.351,43.564 M90.314,137.207l-12.62-12.617
	l8.938-64.517c0.576,0.14,1.159,0.238,1.75,0.238h3.866c0.591,0,1.173-0.098,1.748-0.238l8.937,64.517L90.314,137.207z"/>
<path fill="none" stroke="#F05A28" stroke-width="3" stroke-miterlimit="10" d="M107.134,125.034l-9.29-67.058
	c1.129-1.051,1.997-2.369,2.378-3.84l1.244-8.151c0.435-1.795,0.09-3.587-0.947-4.93c-1.061-1.371-2.758-2.159-4.652-2.159H84.761
	c-1.896,0-3.59,0.787-4.652,2.159c-1.039,1.343-1.382,3.135-0.949,4.93l1.203,7.944l0.042,0.207c0.382,1.47,1.251,2.789,2.378,3.84
	l-9.289,67.058c-0.087,0.639,0.127,1.279,0.581,1.733l14.79,14.788c0.401,0.4,0.926,0.599,1.45,0.599c0.523,0,1.05-0.198,1.45-0.599
	l14.789-14.788C107.008,126.311,107.221,125.671,107.134,125.034z M83.351,43.564c0.282-0.366,0.783-0.567,1.409-0.567h11.106
	c0.626,0,1.126,0.201,1.409,0.567c0.282,0.367,0.353,0.899,0.195,1.504l-1.241,8.13c-0.472,1.615-2.307,3.012-3.982,3.012H88.38
	c-1.677,0-3.513-1.397-3.983-3.012l-1.198-7.922l-0.042-0.208C83,44.463,83.069,43.928,83.351,43.564z M90.314,137.207
	l-12.62-12.617l8.938-64.517c0.576,0.14,1.159,0.238,1.75,0.238h3.866c0.591,0,1.173-0.098,1.748-0.238l8.937,64.517L90.314,137.207
	z"/>
</svg>
