<?xml version="1.0" encoding="utf-8"?>
<!-- Generator: Adobe Illustrator 16.0.0, SVG Export Plug-In . SVG Version: 6.00 Build 0)  -->
<!DOCTYPE svg PUBLIC "-//W3C//DTD SVG 1.1//EN" "http://www.w3.org/Graphics/SVG/1.1/DTD/svg11.dtd">
<svg version="1.1" id="Layer_1" xmlns="http://www.w3.org/2000/svg" xmlns:xlink="http://www.w3.org/1999/xlink" x="0px" y="0px"
	 width="180px" height="180px" viewBox="0 0 180 180" enable-background="new 0 0 180 180" xml:space="preserve">
<path fill="#F05A28" d="M107.94,40.359c-5.001-3.213-10.764-4.262-16.261-3.24c-5.496,1.022-10.976,4.246-14.577,9.852
	c-3.601,5.604-4.275,11.963-2.919,17.388c0.181,0.725,0.426,1.414,0.678,2.115l-25.18,52.951c-0.533,1.12-0.107,2.609,0.941,3.295
	l1.511,0.97c-2.574,4.388-3.737,7.599-3.565,10.536c0.184,3.139,2.294,5.363,4.324,6.716c0.01,0.007,0.024,0.017,0.034,0.023
	c4.618,3.201,10.08,2.646,14.612,0.065c4.544-2.588,8.605-6.976,12.182-12.015c4.016-5.657,7.972-11.758,15.518-14.338
	c11.081-2.095,24.654,6.293,32.837,11.582c1.152,0.762,2.89,0.406,3.629-0.745c0.739-1.148,0.34-2.879-0.833-3.609
	c-8.21-5.306-22.966-15.416-36.828-12.317c-8.101,2.438-14.04,9.97-18.589,16.399c-3.315,4.671-7.05,8.572-10.509,10.543
	c-3.567,1.537-6.791,1.707-9.154,0.125c-1.484-0.982-1.936-1.402-2.012-2.685c-0.069-1.175,0.536-3.595,2.751-7.457l1.581,1.015
	c1.068,0.702,2.646,0.457,3.443-0.524l36.336-45.69c0.761-0.062,1.509-0.134,2.263-0.275c5.496-1.021,10.998-4.278,14.599-9.885
	c3.601-5.604,4.254-11.93,2.897-17.353C116.293,48.377,112.942,43.571,107.94,40.359L107.94,40.359z M104.489,45.732
	c4.409,2.832,7.293,7.095,8.378,11.434c0.779,3.112,0.617,6.106-0.284,8.752c-5.185-0.696-11.116-2.865-16.818-6.528
	c-5.719-3.673-10.211-8.186-12.999-12.625c2.03-1.918,4.687-3.311,7.841-3.898C95.003,42.051,100.081,42.9,104.489,45.732
	 M79.58,51.348c3.246,4.535,7.828,8.823,13.389,12.396c5.544,3.562,11.319,5.908,16.771,6.979c-2.093,2.264-4.992,3.885-8.493,4.535
	c-4.396,0.816-9.474-0.033-13.883-2.865c-4.408-2.832-7.293-7.096-8.377-11.433C78.123,57.504,78.39,54.194,79.58,51.348
	 M91.501,80.909l-32.587,40.987l-3.538-2.271l22.569-47.374c1.592,2.138,3.576,4.025,5.946,5.549
	C86.289,79.34,88.863,80.356,91.501,80.909"/>
<circle fill="none" stroke="#F05A28" stroke-width="7" stroke-miterlimit="10" cx="90.314" cy="89.956" r="81.873"/>
</svg>
