<?xml version="1.0" encoding="utf-8"?>
<!-- Generator: Adobe Illustrator 16.0.0, SVG Export Plug-In . SVG Version: 6.00 Build 0)  -->
<!DOCTYPE svg PUBLIC "-//W3C//DTD SVG 1.1//EN" "http://www.w3.org/Graphics/SVG/1.1/DTD/svg11.dtd">
<svg version="1.1" id="Layer_1" xmlns="http://www.w3.org/2000/svg" xmlns:xlink="http://www.w3.org/1999/xlink" x="0px" y="0px"
	 width="180px" height="180px" viewBox="0 0 180 180" enable-background="new 0 0 180 180" xml:space="preserve">
<circle fill="none" stroke="#F05A28" stroke-width="7" stroke-miterlimit="10" cx="90.314" cy="90.129" r="81.874"/>
<path fill="none" stroke="#F05A28" stroke-width="7" stroke-miterlimit="10" d="M77.931,58.243l4.621,14.193l3.146,9.703
	c0.176,0.551,0.704,0.926,1.276,0.926h25.129c1.299,0,1.848,1.672,0.792,2.442l-20.332,14.764c-0.462,0.354-0.66,0.947-0.485,1.496
	l7.769,23.898c0.396,1.231-1.012,2.266-2.068,1.496l-20.354-14.743c-0.462-0.352-1.101-0.352-1.585,0l-20.332,14.765
	c-1.057,0.771-2.464-0.264-2.068-1.497l7.768-23.896c0.177-0.55-0.021-1.166-0.483-1.496L40.391,85.527
	c-1.056-0.769-0.506-2.441,0.793-2.441h25.129c0.572,0,1.1-0.374,1.276-0.924l7.768-23.919
	C75.775,57.011,77.513,57.011,77.931,58.243z"/>
<path fill="none" stroke="#F05A28" stroke-width="7" stroke-miterlimit="10" d="M96.899,71.952l7.768-23.897
	c0.396-1.232,2.156-1.232,2.553,0l7.768,23.897c0.176,0.55,0.704,0.924,1.276,0.924h25.129c1.298,0,1.849,1.673,0.792,2.442
	l-20.332,14.766c-0.462,0.351-0.66,0.945-0.484,1.496l7.768,23.919c0.396,1.231-1.012,2.266-2.068,1.495l-20.332-14.764"/>
</svg>
